<svg width="512" height="512" viewBox="0 0 512 512" fill="none" xmlns="http://www.w3.org/2000/svg">
  <defs>
    <linearGradient id="toothGradient" x1="96" y1="108" x2="430" y2="406" gradientUnits="userSpaceOnUse">
      <stop stop-color="#1D8BFF"/>
      <stop offset="0.48" stop-color="#14B8E6"/>
      <stop offset="1" stop-color="#16F2C3"/>
    </linearGradient>
    <linearGradient id="faceGradient" x1="177" y1="213" x2="342" y2="320" gradientUnits="userSpaceOnUse">
      <stop stop-color="#0F172A"/>
      <stop offset="1" stop-color="#0A2A3A"/>
    </linearGradient>
  </defs>
  <path d="M156 99C110 110 86 151 91 202C98 275 122 356 157 422C178 462 222 453 236 411L250 370C255 356 275 356 280 370L295 411C310 453 354 462 375 422C410 356 434 275 441 202C446 151 422 110 376 99C329 88 297 134 269 133C240 132 204 88 156 99Z" stroke="url(#toothGradient)" stroke-width="27" stroke-linecap="round" stroke-linejoin="round"/>
  <path d="M196 219H316C343 219 365 241 365 268C365 295 343 317 316 317H196C169 317 147 295 147 268C147 241 169 219 196 219Z" fill="url(#faceGradient)" stroke="#128AC4" stroke-width="8"/>
  <circle cx="217" cy="268" r="18" fill="#18F2D0"/>
  <circle cx="295" cy="268" r="18" fill="#18F2D0"/>
  <path d="M288 352C310 371 342 367 363 342" stroke="#18F2D0" stroke-width="13" stroke-linecap="round"/>
  <path d="M256 133V75" stroke="#18F2D0" stroke-width="15" stroke-linecap="round"/>
  <circle cx="256" cy="55" r="27" fill="#18D9EF" stroke="#6FFFE8" stroke-width="8"/>
  <path d="M392 138L403 165L430 176L403 187L392 214L381 187L354 176L381 165L392 138Z" fill="#18F2D0"/>
  <path d="M426 230L434 250L454 258L434 266L426 286L418 266L398 258L418 250L426 230Z" fill="#18F2D0"/>
</svg>
